<?xml version="1.0" encoding="UTF-8"?>
<svg id="Layer_1" xmlns="http://www.w3.org/2000/svg" version="1.1" viewBox="0 0 1080 1080">
  <!-- Generator: Adobe Illustrator 29.1.0, SVG Export Plug-In . SVG Version: 2.1.0 Build 142)  -->
  <defs>
    <style>
      .st0 {
        fill: #fff;
      }
    </style>
  </defs>
  <g>
    <path class="st0" d="M539.27,81.02c-7.99-43.94-44.83-73.15-89.52-70.9-1.86.09-3.73.3-5.57.62-34.09,5.92-59.44,29.12-68.33,59.94-1.98,6.85-2.93,13.74-3.14,20.56L21.71,293.89v526.42l390.59,225.5c23.04,13.3,52.49,5.41,65.79-17.63h0c12.76-22.11,5.19-50.38-16.92-63.14l-345.07-199.23v-417.43l307.47-177.52c3.07,1.3,6.22,2.49,9.5,3.44,7.72,2.23,15.5,3.29,23.16,3.29,45.67,0,86.94-37.73,83.71-91.06-.11-1.84-.34-3.7-.67-5.51ZM499.84,106.45c-9.81,34.02-56.25,47.75-84.1,10.77-.26-.35-.49-.76-.66-1.17-10.44-26.13-.82-50.78,19.26-61.87,6.81-3.76,14.29-5.67,21.86-5.67,4.22,0,8.47.59,12.63,1.8,11.64,3.36,21.28,11.05,27.13,21.65,5.86,10.6,7.23,22.85,3.87,34.49Z"/>
    <path class="st0" d="M543.61,1010.63c10.69,33.65,39.42,56.42,74.68,59.14,10.03.77,20.19-.41,29.79-3.45,27.86-8.81,48.28-29.96,56.07-56.96,1.98-6.85,2.93-13.74,3.14-20.56l351-202.65V259.74L666.87,33.75c-22.57-13.03-51.43-5.3-64.47,17.27h0c-13.03,22.57-5.3,51.43,17.27,64.47l344.23,198.74v417.43l-307.47,177.52c-3.07-1.3-6.22-2.49-9.5-3.44-7.72-2.23-15.5-3.29-23.16-3.29-42.14,0-80.53,32.12-83.68,78.98-.66,9.85.53,19.8,3.52,29.2ZM580.16,973.59c7.4-25.66,35.63-39.77,61.01-29.3,19.24,7.94,30.8,28.72,27.32,49.24-2.37,13.95-10.69,25.62-22.83,32.33-6.81,3.76-14.29,5.67-21.86,5.67-4.22,0-8.47-.59-12.63-1.8-11.64-3.36-21.28-11.05-27.13-21.65-5.86-10.6-7.23-22.85-3.87-34.49Z"/>
  </g>
  <g>
    <path class="st0" d="M255.26,548.08h585.88v26.09c0,36.32-29.49,65.81-65.81,65.81H189.45v-26.09c0-36.32,29.49-65.81,65.81-65.81Z" transform="translate(1200.25 980.33) rotate(160.36)"/>
    <path class="st0" d="M470.23,627.53h364.46v26.09c0,36.32-29.49,65.81-65.81,65.81h-364.46v-26.09c0-36.32,29.49-65.81,65.81-65.81Z" transform="translate(1429.41 1099.57) rotate(160.36)"/>
    <path class="st0" d="M309.14,330.82h366.26v26.09c0,36.32-29.49,65.81-65.81,65.81H243.34v-26.09c0-36.32,29.49-65.81,65.81-65.81Z" transform="translate(1018.64 577.25) rotate(160.36)"/>
    <path class="st0" d="M302.18,412.64h587.83v26.09c0,36.32-29.49,65.81-65.81,65.81H236.38v-26.09c0-36.32,29.49-65.81,65.81-65.81Z" transform="translate(1247.75 701.22) rotate(160.36)"/>
  </g>
</svg>